<svg xmlns="http://www.w3.org/2000/svg" viewBox="0 0 100 100"><defs><style>.a{fill:#acd1d4;opacity:0.85;isolation:isolate;}.b{fill:#fff;}.b,.c,.d,.e,.f{stroke:#231f20;stroke-miterlimit:10;stroke-width:2px;}.c{fill:#bcbec0;}.d{fill:#9d1e2d;}.e{fill:#58595b;}.f{fill:#f1f2f2;}</style></defs><title>AboutIcon</title><rect class="a" width="100" height="100"/><circle class="b" cx="50" cy="23.23" r="10.15"/><path class="c" d="M46.55,33.38h6.91A11.67,11.67,0,0,1,65.13,45.06v7.86a0,0,0,0,1,0,0H34.87a0,0,0,0,1,0,0V45.06A11.67,11.67,0,0,1,46.55,33.38Z"/><circle class="b" cx="30.04" cy="37.47" r="10.15"/><path class="d" d="M26.59,47.62H33.5A11.67,11.67,0,0,1,45.17,59.29v7.86a0,0,0,0,1,0,0H14.91a0,0,0,0,1,0,0V59.29A11.67,11.67,0,0,1,26.59,47.62Z"/><circle class="b" cx="70.04" cy="37.47" r="10.15"/><path class="e" d="M66.59,47.62H73.5A11.67,11.67,0,0,1,85.17,59.29v7.86a0,0,0,0,1,0,0H54.91a0,0,0,0,1,0,0V59.29A11.67,11.67,0,0,1,66.59,47.62Z"/><circle class="b" cx="50" cy="50.23" r="10.15"/><path class="f" d="M46.55,60.38h6.91A11.67,11.67,0,0,1,65.13,72.06v7.86a0,0,0,0,1,0,0H34.87a0,0,0,0,1,0,0V72.06A11.67,11.67,0,0,1,46.55,60.38Z"/></svg>