<svg xmlns="http://www.w3.org/2000/svg" xmlns:xlink="http://www.w3.org/1999/xlink" viewBox="0 0 302.43 189.07"><defs><style>.a{fill:none;}.b{fill:url(#a);}.c{fill:#0c4560;}.d{fill:url(#b);}.e{fill:#ef5033;}.f{fill:#fff;}</style><linearGradient id="a" x1="154.37" y1="103.59" x2="154.37" y2="10.73" gradientUnits="userSpaceOnUse"><stop offset="0" stop-color="#0cafbd"/><stop offset="1" stop-color="#abdff1"/></linearGradient><linearGradient id="b" x1="186.89" y1="139.26" x2="186.89" y2="57.24" xlink:href="#a"/></defs><title>VarnoDomov</title><path d="M15.22,217.39,5.08,189h5.73l4.5,13.49c1.34,4.05,2.49,7.7,3.13,10.51h.09c.58-2.55,1.87-6.34,3.27-10.4L26.5,189H32L21.52,217.39Z" transform="translate(-5.08 -28.73)"/><path d="M37.67,210.15l-2.51,7.24H29.91L39.72,189h6.67l10.24,28.44H51l-2.62-7.24Zm9.52-4.42c-2.26-6.51-3.61-10.39-4.28-12.81h0c-.7,2.67-2.2,7.25-4,12.81Z" transform="translate(-5.08 -28.73)"/><path d="M65.79,205.62v11.77H60.56V189h12c6.08,0,9.34,3.33,9.34,7.74a6.68,6.68,0,0,1-4.38,6.72c1.72.55,3.81,2.11,3.81,7.15v1.34a21.6,21.6,0,0,0,.4,5.49H76.66c-.5-1.23-.55-3.39-.55-6.29v-.48c0-3.43-.91-5-5.67-5Zm0-4.31H71.3c3.7,0,5.21-1.4,5.21-4.06s-1.67-4-5-4H65.79Z" transform="translate(-5.08 -28.73)"/><path d="M87.7,217.39V189h6.72c3.73,6.48,11.09,18.89,12.5,22H107c-.31-3.2-.3-8-.3-12.64V189h4.89v28.44h-6.36c-3.3-5.77-11.25-19.68-12.79-22.93h-.07c.21,2.74.25,8.23.25,13.34v9.59Z" transform="translate(-5.08 -28.73)"/><path d="M144.3,203.05c0,7.88-4.63,14.75-13.77,14.75-8.74,0-13.41-6.48-13.41-14.63s5-14.63,13.78-14.63C139.11,188.54,144.3,194.43,144.3,203.05Zm-21.65,0c0,5.75,2.68,10.36,8.09,10.36,5.85,0,8-4.88,8-10.29,0-5.64-2.47-10.19-8.1-10.19S122.65,197.33,122.65,203.05Z" transform="translate(-5.08 -28.73)"/><path d="M161.05,188.6h9.55c7.89,0,13.36,5.51,13.36,14.15s-5.35,14.64-13.41,14.64h-9.5Zm2.23,26.73h6.95c7.6,0,11.34-5.34,11.34-12.46,0-6.33-3.37-12.21-11.34-12.21h-6.95Z" transform="translate(-5.08 -28.73)"/><path d="M214.48,202.79c0,7.86-4.2,15-13.08,15-8.1,0-12.83-6.54-12.83-14.8s4.56-14.81,13.12-14.81C209.58,188.19,214.48,194.4,214.48,202.79Zm-23.53.08c0,6.62,3.66,12.88,10.57,12.88,7.45,0,10.57-6.09,10.57-12.92s-3.53-12.58-10.48-12.58C194.2,190.25,191,196.38,191,202.87Z" transform="translate(-5.08 -28.73)"/><path d="M245.73,204.15c0-5.64,0-11,.17-13.9h-.13c-1.15,3.86-7,18.05-10.65,27.14h-2.18c-2.75-7-8.8-22.82-10.11-27.18h-.08c.2,3.29.28,10,.28,14.93v12.25h-2.22V188.6h3.33c4,9.87,8.93,22.79,10,26h.08c.66-2.09,6.41-16.44,10.44-26H248v28.79h-2.22Z" transform="translate(-5.08 -28.73)"/><path d="M280.2,202.79c0,7.86-4.2,15-13.08,15-8.1,0-12.83-6.54-12.83-14.8s4.57-14.81,13.12-14.81C275.3,188.19,280.2,194.4,280.2,202.79Zm-23.52.08c0,6.62,3.65,12.88,10.56,12.88,7.45,0,10.57-6.09,10.57-12.92s-3.53-12.58-10.48-12.58C259.92,190.25,256.68,196.38,256.68,202.87Z" transform="translate(-5.08 -28.73)"/><path d="M293.77,217.39,283.08,188.6h2.38l5.6,15.06c1.6,4.35,3.41,9.17,4,11.59h.08c.62-2.14,2.59-7.2,4.19-11.43l5.8-15.22h2.35L296.4,217.39Z" transform="translate(-5.08 -28.73)"/><path class="a" d="M184.92,70.22c-.19.32-.38.66-.58,1L184,71.1l-11.56-3.8-1.21-.39,1.53.33C175.77,67.91,180.11,68.91,184.92,70.22Z" transform="translate(-5.08 -28.73)"/><path class="a" d="M187.12,66.12c-3.06-.3-6.29-.56-9.67-.76q-3-.18-6.15-.3c1.92-.15,4.33-.3,7.1-.36.79,0,1.6,0,2.45,0s3.22,0,6.87.21" transform="translate(-5.08 -28.73)"/><path class="b" d="M184.34,71.23c11.07,3.74,33.09,10.54,16.72,20.26-8.6,5.11-24.44,6-34.15,7.68-27.54,4.8-60.83,2.64-83,22.43-22.88-89.08,110-132,143.58-46.47-11.37-8.36-26.12-9.45-39.76-10.25Z" transform="translate(-5.08 -28.73)"/><path class="c" d="M229.64,86.37c-.47,21.32-55.33,27.24-69.89,32.21-33.08,11.28-42.91,37.35-11.29,59.24a75.64,75.64,0,0,1-60.52-44.54c19.7-22.84,53.6-22.48,80.89-28.91,10.84-2.55,34.66-5,41.91-14.68,9-12-16.13-17.46-25.42-20.2.49-.93,1-1.83,1.55-2.72C197,67.43,230,70.25,229.64,86.37Z" transform="translate(-5.08 -28.73)"/><path class="d" d="M232.67,102.73a75.61,75.61,0,0,1-57.39,73.38c-24.58-9.28-52.93-29.8-17.47-47.26,23-11.35,58.32-12.64,74.38-34.77A77.15,77.15,0,0,1,232.67,102.73Z" transform="translate(-5.08 -28.73)"/><path class="e" d="M188.52,41.83c-5.05-8.57-15.36-9.56-16.34-9.64-1.59-.13-9.94-.61-16.33,5.63-5.73,5.57-6.09,12.79-6.16,15-.2,5.64,1.72,9.46,8.57,21.69,4.8,8.6,8.94,15.8,12.05,21.16,2.6-4.34,6.4-10.7,11-18.48,1.32-2.26,2.46-4.21,3.45-5.94.2-.35.39-.68.57-1,.86-1.53,1.59-2.87,2.2-4.1.22-.42.42-.84.6-1.24a25.9,25.9,0,0,0,2.55-8.6C191.06,52.77,191.7,47.25,188.52,41.83Z" transform="translate(-5.08 -28.73)"/><path class="f" d="M175.68,63.48l-.39.19-.1,0-.24.11-.24.1-.34.13-.21.07a3.53,3.53,0,0,1-.46.15l-.51.14-.24.06-.28.06-.26,0h0l-.49.07h0l-.25,0-.19,0c-.16,0-.32,0-.48,0s-.42,0-.63,0A11.73,11.73,0,1,1,182.07,53c0,.12,0,.24,0,.36v.07c0,.06,0,.12,0,.18l0,.39c0,.06,0,.12,0,.18a10.46,10.46,0,0,1-.23,1.38,1.55,1.55,0,0,1-.05.23c0,.23-.11.45-.18.67s-.07.2-.1.31-.06.18-.1.27-.06.18-.1.27l0,0a3.45,3.45,0,0,1-.14.34c-.05.12-.11.24-.17.36v0l-.11.21-.15.3-.14.24-.18.31a11.14,11.14,0,0,1-.94,1.31,2,2,0,0,1-.19.22c0,.07-.12.14-.18.21l-.38.4-.42.4-.21.18-.21.18-.18.14-.26.21h0c-.12.1-.25.19-.38.28l-.11.07-.16.1a1,1,0,0,1-.13.09C176.28,63.15,176,63.32,175.68,63.48Z" transform="translate(-5.08 -28.73)"/></svg>