<svg xmlns="http://www.w3.org/2000/svg" viewBox="0 0 28.8 15.64"><defs><style>.a{fill:#c7dee0;}.b{opacity:0.9;}.c{fill:#9d1e2d;stroke-width:0.37px;}.c,.d,.e{stroke:#000;stroke-miterlimit:10;}.d,.e{stroke-width:0.42px;}.e{fill:#fff;}</style></defs><title>BorderBanner_left</title><rect class="a" x="0.01" width="28.8" height="15.64"/><g class="b"><circle class="c" cx="25.54" cy="3.02" r="2.75"/><path d="M25.53,6.46a3.12,3.12,0,0,1-2.09-.8v6.89h4.18V5.66A3.12,3.12,0,0,1,25.53,6.46Z" transform="translate(0.01)"/><rect x="22.19" y="12.85" width="6.61" height="2.79" rx="0.27"/><path class="d" d="M6.88,1.21l-2,3.63H2.48l2-3.63Z" transform="translate(0.01)"/><path class="e" d="M4.5,1.21l-2,3.63H1.17a1,1,0,0,1-1-1V2.17a1,1,0,0,1,1-1Z" transform="translate(0.01)"/><path class="d" d="M13.14,1.21l-2,3.63H8.69c.68-1.21,1.35-2.42,2-3.63Z" transform="translate(0.01)"/><path class="e" d="M6.88,1.21h3.83c-.67,1.21-1.34,2.42-2,3.63H4.86Z" transform="translate(0.01)"/><path class="d" d="M19.38,1.21l-2,3.63H15l2-3.63Z" transform="translate(0.01)"/><path class="e" d="M13.14,1.21H17L15,4.84h-3.9Z" transform="translate(0.01)"/><path class="e" d="M21.82,3a3.08,3.08,0,0,0,.58,1.81h-5l2-3.63h3A3.08,3.08,0,0,0,21.82,3Z" transform="translate(0.01)"/></g></svg>