<svg xmlns="http://www.w3.org/2000/svg" viewBox="0 0 28.8 15.64"><defs><style>.a{fill:#c7dee0;}.b{opacity:0.9;}.c{fill:#9d1e2d;stroke-width:0.37px;}.c,.d,.e{stroke:#000;stroke-miterlimit:10;}.d,.e{stroke-width:0.42px;}.e{fill:#fff;}</style></defs><title>BorderBanner_right</title><rect class="a" width="28.8" height="15.64"/><g class="b"><circle class="c" cx="3.27" cy="3.02" r="2.75"/><path d="M3.27,6.46a3.08,3.08,0,0,0,2.08-.8v6.89H1.18V5.66A3.09,3.09,0,0,0,3.27,6.46Z"/><rect y="12.85" width="6.61" height="2.79" rx="0.27" transform="translate(6.61 28.49) rotate(-180)"/><path class="d" d="M21.91,1.21c.68,1.21,1.35,2.42,2,3.63h2.39c-.68-1.21-1.35-2.42-2-3.63Z"/><path class="e" d="M24.3,1.21c.67,1.21,1.34,2.42,2,3.63h1.31a1,1,0,0,0,1-1V2.17a1,1,0,0,0-1-1Z"/><path class="d" d="M15.66,1.21l2,3.63H20.1c-.67-1.21-1.34-2.42-2-3.63Z"/><path class="e" d="M21.91,1.21H18.08c.68,1.21,1.35,2.42,2,3.63h3.83C23.26,3.63,22.59,2.42,21.91,1.21Z"/><path class="d" d="M9.41,1.21l2,3.63h2.34l-2-3.63Z"/><path class="e" d="M15.66,1.21h-3.9l2,3.63h3.9Z"/><path class="e" d="M7,3A3.15,3.15,0,0,1,6.4,4.84h5l-2-3.63h-3A3.15,3.15,0,0,1,7,3Z"/></g></svg>