<svg xmlns="http://www.w3.org/2000/svg" viewBox="0 0 32.15 24.91"><defs><style>.a{fill:#c7dee0;}.b{fill:#9d1e2d;}.c{fill:#fff;}</style></defs><title>EventsBanner_left</title><rect class="a" width="32.15" height="24.91"/><polygon points="26.53 24.91 5.79 24.91 12.16 0 20.13 0 26.53 24.91"/><polygon points="2.99 24.91 0 24.91 10.05 0 11.23 0 2.99 24.91"/><polygon class="b" points="29.16 24.91 32.15 24.91 22.1 0 20.92 0 29.16 24.91"/><rect class="c" x="15.49" width="1.31" height="2.02"/><polygon class="c" points="17.11 10.89 15.27 10.89 15.49 5.16 16.8 5.16 17.11 10.89"/><polygon class="c" points="17.36 19.72 14.96 19.72 15.27 14.15 17.11 14.15 17.36 19.72"/><polygon class="c" points="17.61 24.91 14.71 24.91 14.96 22.89 17.36 22.89 17.61 24.91"/></svg>