<svg xmlns="http://www.w3.org/2000/svg" viewBox="0 0 100 100"><defs><style>.a{fill:#acd1d4;opacity:0.85;isolation:isolate;}.b{fill:#231f20;}.c{fill:#9d1e2d;}.d{fill:#fff;}</style></defs><title>EventsIcon</title><rect class="a" width="100" height="100"/><polygon class="b" points="68.16 71.62 32.15 71.62 43.21 28.38 57.04 28.38 68.16 71.62"/><polygon class="c" points="27.3 71.62 22.11 71.62 39.55 28.38 41.59 28.38 27.3 71.62"/><polygon class="b" points="72.7 71.62 77.89 71.62 60.45 28.38 58.41 28.38 72.7 71.62"/><rect class="d" x="48.98" y="28.38" width="2.27" height="3.51"/><polygon class="d" points="51.8 47.28 48.62 47.28 48.98 37.35 51.26 37.35 51.8 47.28"/><polygon class="d" points="52.23 62.6 48.06 62.6 48.62 52.95 51.8 52.95 52.23 62.6"/><polygon class="d" points="52.66 71.62 47.65 71.62 48.06 68.12 52.23 68.12 52.66 71.62"/></svg>