<svg xmlns="http://www.w3.org/2000/svg" viewBox="0 0 100 100"><defs><style>.a{fill:#acd1d4;opacity:0.85;isolation:isolate;}.b{fill:#9d1e2d;}.b,.e{stroke:#231f20;stroke-miterlimit:10;stroke-width:4.23px;}.c{fill:#231f20;}.d{fill:#fff;}.e{fill:#bcbec0;}</style></defs><title>ForecastIcon</title><rect class="a" width="100" height="100"/><path class="b" d="M56.07,38c0-4.48-2.38-8.13-5.36-8.13H33.77c-2.83,0-5.34,3.65-5.34,8.13L28,44.52H56.6Z"/><path class="c" d="M56.9,41.44H27.81a6,6,0,0,0-6,6V61a2.5,2.5,0,0,0,2.5,2.51h3A2.51,2.51,0,0,0,29.84,61v-2.9H54.52V61A2.5,2.5,0,0,0,57,63.52h3.23A2.5,2.5,0,0,0,62.75,61V47.4A5.93,5.93,0,0,0,56.9,41.44Z"/><circle class="d" cx="30.99" cy="49.82" r="2.53"/><circle class="d" cx="54.07" cy="49.82" r="2.53"/><path class="e" d="M71.47,44.72c0-4.51-2.41-8.16-5.36-8.16h-17c-2.85,0-5.36,3.65-5.36,8.16l-.42,6.48H71.92Z"/><path class="c" d="M72.19,48.1H42.93a6,6,0,0,0-5.93,6V67.6a2.5,2.5,0,0,0,2.5,2.5h3.25a2.5,2.5,0,0,0,2.51-2.5V64.77H69.91V67.6a2.5,2.5,0,0,0,2.51,2.5h3.23a2.5,2.5,0,0,0,2.5-2.5V54.08A6,6,0,0,0,72.19,48.1Z"/><circle class="d" cx="46.38" cy="56.51" r="2.53"/><circle class="d" cx="69.46" cy="56.51" r="2.53"/></svg>