<svg xmlns="http://www.w3.org/2000/svg" viewBox="0 0 32.98 25"><defs><style>.a{fill:#c7dee0;}.b{fill:#9d1e2d;}.b,.e{stroke:#231f20;stroke-miterlimit:10;stroke-width:2.48px;}.c{fill:#231f20;}.d,.e{fill:#fff;}</style></defs><title>ForecastBanner_right</title><rect class="a" width="32.98" height="25"/><path class="b" d="M12.63,10H29.41l-.26-3.81c0-2.63-1.41-4.77-3.13-4.77H16.08c-1.74,0-3.14,2.14-3.14,4.77Z"/><path class="c" d="M9,11.68v8a1.42,1.42,0,0,0,1.43,1.43h1.89a1.43,1.43,0,0,0,1.43-1.43V18H28.23v1.71a1.44,1.44,0,0,0,1.43,1.43h1.91A1.42,1.42,0,0,0,33,19.66v-8a3.5,3.5,0,0,0-3.49-3.51h-17A3.5,3.5,0,0,0,9,11.68Z"/><circle class="d" cx="27.65" cy="13.1" r="1.48"/><circle class="d" cx="14.11" cy="13.1" r="1.48"/><path class="e" d="M3.61,13.9H20.38l-.25-3.8c0-2.64-1.41-4.78-3.14-4.78H7.06c-1.74,0-3.14,2.14-3.14,4.78Z"/><path class="c" d="M0,15.59v8A1.42,1.42,0,0,0,1.42,25h1.9a1.43,1.43,0,0,0,1.43-1.42V21.86H19.21v1.72A1.43,1.43,0,0,0,20.64,25h1.9A1.42,1.42,0,0,0,24,23.58v-8a3.51,3.51,0,0,0-3.5-3.51h-17A3.5,3.5,0,0,0,0,15.59Z"/><circle class="d" cx="18.63" cy="17.01" r="1.48"/><circle class="d" cx="5.09" cy="17.01" r="1.48"/></svg>