<svg xmlns="http://www.w3.org/2000/svg" viewBox="0 0 32.98 25"><defs><style>.a{fill:#c7dee0;}.b{fill:#9d1e2d;}.b,.e{stroke:#231f20;stroke-miterlimit:10;stroke-width:2.48px;}.c{fill:#231f20;}.d,.e{fill:#fff;}</style></defs><title>ForecastBanner_left</title><rect class="a" width="32.98" height="25"/><path class="b" d="M20.35,10H3.57l.26-3.81C3.83,3.55,5.24,1.41,7,1.41H16.9C18.64,1.41,20,3.55,20,6.18Z"/><path class="c" d="M24,11.68v8a1.42,1.42,0,0,1-1.43,1.43H20.64a1.42,1.42,0,0,1-1.43-1.43V18H4.75v1.71a1.44,1.44,0,0,1-1.43,1.43H1.41A1.42,1.42,0,0,1,0,19.66v-8A3.5,3.5,0,0,1,3.49,8.17h17A3.51,3.51,0,0,1,24,11.68Z"/><circle class="d" cx="5.33" cy="13.1" r="1.48"/><circle class="d" cx="18.87" cy="13.1" r="1.48"/><path class="e" d="M29.37,13.9H12.59l.26-3.8c0-2.64,1.41-4.78,3.13-4.78h9.94c1.74,0,3.14,2.14,3.14,4.78Z"/><path class="c" d="M33,15.59v8A1.42,1.42,0,0,1,31.55,25H29.66a1.43,1.43,0,0,1-1.43-1.42V21.86H13.77v1.72A1.43,1.43,0,0,1,12.34,25H10.43A1.42,1.42,0,0,1,9,23.58v-8a3.5,3.5,0,0,1,3.49-3.51h17A3.5,3.5,0,0,1,33,15.59Z"/><circle class="d" cx="14.35" cy="17.01" r="1.48"/><circle class="d" cx="27.89" cy="17.01" r="1.48"/></svg>