<svg xmlns="http://www.w3.org/2000/svg" viewBox="0 0 100 100"><defs><style>.a{fill:#acd1d4;opacity:0.85;isolation:isolate;}.b,.g{fill:none;}.b,.g,.h,.i{stroke:#231f20;}.b,.c,.g,.h,.i{stroke-miterlimit:10;}.b{stroke-width:0.72px;}.c{fill:#9d1e2d;stroke:#9d1e2d;stroke-width:0.9px;}.d{fill:#fff;}.e{fill:#231f20;}.f{fill:#e6e7e8;}.g,.h{stroke-width:0.67px;}.h,.i{fill:#d1d3d4;}.i{stroke-width:0.84px;}</style></defs><title>IdeaIcon</title><rect class="a" width="100" height="100"/><path class="b" d="M43.85,52.14A4.42,4.42,0,0,1,47,51.3c1.56.27,2.29,1.56,3.67,1.29.59-.12.65-.4,1.37-.74a5.55,5.55,0,0,1,3.7-.24"/><rect class="c" x="30.75" y="24.45" width="2.45" height="7.94" rx="1.23" transform="translate(-10.52 23.48) rotate(-35)"/><rect class="c" x="66.8" y="24.68" width="2.45" height="7.94" rx="1.23" transform="translate(28.73 -33.83) rotate(35)"/><rect class="c" x="48.36" y="18.5" width="2.45" height="7.94" rx="1.23"/><rect class="c" x="21.74" y="38.85" width="2.45" height="7.94" rx="1.23" transform="translate(-25.55 45.54) rotate(-65)"/><rect class="c" x="75.81" y="39.23" width="2.45" height="7.94" rx="1.23" transform="translate(83.63 -44.87) rotate(65)"/><path class="d" d="M43.19,68.33l-.84-2.21A17.5,17.5,0,1,1,57.27,66l-1.11,2.24-.3.19-12.35.08Z"/><path class="e" d="M49.71,33.08A17.17,17.17,0,0,1,57,65.78h0l-1.15,2.34-12.36.09-.88-2.33h0a17.17,17.17,0,0,1,7.08-32.8m0-.67a17.84,17.84,0,0,0-7.62,34l.78,2.08.64.43,6.18,0,6.17,0,.6-.37.51-1,.55-1.11a17.84,17.84,0,0,0-7.81-33.87Z"/><circle class="f" cx="49.6" cy="49.64" r="11.36"/><path class="g" d="M43.76,50.1l3.52,18.11"/><path class="g" d="M55.69,50.33,52.17,68.44"/><path class="h" d="M46.39,77.7a3.45,3.45,0,0,0,6.78-.07"/><path class="h" d="M43.5,68.21H55.69a0,0,0,0,1,0,0v6.22a3.3,3.3,0,0,1-3.3,3.3H46.81a3.3,3.3,0,0,1-3.3-3.3V68.21A0,0,0,0,1,43.5,68.21Z"/><path class="i" d="M43.5,70.73l12.19.06"/><path class="i" d="M43.5,73.57l12.19.06"/><path class="b" d="M44.35,53.15a7.27,7.27,0,0,1,2.35-.45c1.8,0,2.66.69,4.09.9a7,7,0,0,0,4.47-1.05"/></svg>