<svg xmlns="http://www.w3.org/2000/svg" viewBox="0 0 100 100"><defs><style>.a{fill:#acd1d4;opacity:0.85;}.b{fill:#bcbec0;}.c,.f{fill:#fff;}.c,.e,.f{stroke:#fff;}.c,.d,.e,.f{stroke-miterlimit:10;}.c{stroke-width:0.45px;}.d{fill:none;stroke:#231f20;}.d,.e{stroke-width:2px;}.e{fill:#9d1e2d;}.f{stroke-width:1.46px;}</style></defs><title>MapIconTest</title><rect class="a" width="100" height="100"/><polygon class="b" points="87.3 86.28 12.7 86.28 31.35 48.98 68.65 48.98 87.3 86.28"/><path class="c" d="M27.6,56.49l9.8,17.12,18.07-3.83q-4.66-10.24-9.35-20.49l9.52-.11,8.72,19.15,12.57-2.79,3.95,7.9-40.5,9,1.84,3.9-9.87-.23L22.32,67Z"/><polygon class="d" points="87.3 86.28 12.7 86.28 31.35 48.98 68.65 48.98 87.3 86.28"/><path class="e" d="M65.41,21c-4.24-7.21-12.91-8-13.74-8.11-1.34-.11-8.35-.51-13.73,4.73a18.28,18.28,0,0,0-5.18,12.61C32.6,35,34.21,38.2,40,48.49c4,7.23,7.52,13.29,10.13,17.79,2.19-3.64,5.38-9,9.23-15.54,1.12-1.89,2.08-3.54,2.91-5,.16-.29.32-.58.48-.85.72-1.29,1.33-2.42,1.85-3.45.18-.36.35-.7.5-1a21.48,21.48,0,0,0,2.14-7.23C67.56,30.21,68.09,25.57,65.41,21Z"/><path class="f" d="M53.78,39.45a1.26,1.26,0,0,1-.26.13l-.07,0-.16.07-.16.07-.24.09-.15,0-.31.1-.35.09-.17,0-.19,0-.17,0h0l-.33,0h0l-.17,0h-.13l-.33,0h-.43a8,8,0,1,1,8-8v.29s0,.08,0,.12a2.45,2.45,0,0,1,0,.27.62.62,0,0,1,0,.13,7.36,7.36,0,0,1-.15.94.94.94,0,0,1,0,.16,3.74,3.74,0,0,1-.12.45,1.87,1.87,0,0,1-.07.22,1.34,1.34,0,0,1-.07.18l-.06.19,0,0a2.44,2.44,0,0,1-.1.24,2.56,2.56,0,0,1-.11.24s0,0,0,0l-.07.15-.11.2-.09.17a2.39,2.39,0,0,1-.13.21,9.21,9.21,0,0,1-.64.9l-.13.15-.13.14-.26.28-.28.27-.15.12a.86.86,0,0,1-.14.13l-.12.09-.18.14h0l-.26.19-.07,0-.11.07-.1.06A6,6,0,0,1,53.78,39.45Z"/></svg>