<svg xmlns="http://www.w3.org/2000/svg" viewBox="0 0 100 100"><defs><style>.a{fill:#acd1d4;opacity:0.85;isolation:isolate;}.b{fill:#bcbec0;}.c,.d{fill:none;}.c,.d,.e{stroke:#231f20;stroke-miterlimit:10;}.c{stroke-width:2px;}.d{stroke-width:1.94px;}.e{fill:#231f20;stroke-width:1.85px;}.f{fill:#fff;}.g{fill:#9d1e2d;}</style></defs><title>NewsIcon</title><rect class="a" width="100" height="100"/><path class="b" d="M75.32,19H41.53A6.51,6.51,0,0,0,35,25.53V35.68H22.25a4.08,4.08,0,0,0-4.08,4.08V74a7,7,0,0,0,7,7H29a6.05,6.05,0,0,0,6.05-6v6h40.3a6.51,6.51,0,0,0,6.51-6.51V25.53A6.51,6.51,0,0,0,75.32,19Z"/><path class="c" d="M35.34,80.38h40.3a6.51,6.51,0,0,0,6.51-6.51V24.94a6.51,6.51,0,0,0-6.51-6.51H41.85a6.51,6.51,0,0,0-6.51,6.51V74.33"/><path class="d" d="M22.57,35.09H35.34a0,0,0,0,1,0,0V74.33a6.05,6.05,0,0,1-6.05,6.05H25.51a7,7,0,0,1-7-7V39.17A4.09,4.09,0,0,1,22.57,35.09Z"/><rect class="e" x="24.7" y="35.09" width="10.64" height="28.26"/><path class="c" d="M27.77,80.38H47"/><rect class="f" x="59" y="30.68" width="18.32" height="18.32" rx="2.91"/><rect class="g" x="40.8" y="31.83" width="15.49" height="3.19" rx="1.55"/><rect class="f" x="40.8" y="38.22" width="15.49" height="3.19" rx="1.55"/><rect class="f" x="40.8" y="44.62" width="15.49" height="3.19" rx="1.55"/><rect class="f" x="40.68" y="53.11" width="36.64" height="3.19" rx="1.57"/><rect class="f" x="40.68" y="59.11" width="36.64" height="3.19" rx="1.57"/><rect class="f" x="40.68" y="65.54" width="36.64" height="3.19" rx="1.57"/></svg>