<svg xmlns="http://www.w3.org/2000/svg" viewBox="0 0 26.06 25.1"><defs><style>.a{fill:#c7dee0;}.b{fill:#fff;}.c,.d{fill:none;}.c,.d,.e{stroke:#231f20;stroke-miterlimit:10;}.c{stroke-width:0.78px;}.d{stroke-width:0.76px;}.e,.f{fill:#bcbec0;}.e{stroke-width:0.72px;}.g{fill:#9d1e2d;}</style></defs><title>NewsBanner_right</title><rect class="a" x="0.32" width="25.68" height="25" transform="translate(26.38 25.1) rotate(-180)"/><path class="b" d="M3,.52H16.19a2.54,2.54,0,0,1,2.54,2.54V7h5a1.59,1.59,0,0,1,1.59,1.59V22a2.74,2.74,0,0,1-2.74,2.74H21.1a2.37,2.37,0,0,1-2.37-2.36v2.36H3A2.54,2.54,0,0,1,.46,22.17V3.06A2.54,2.54,0,0,1,3,.52Z" transform="translate(0.05 0.1)"/><path class="c" d="M18.61,22.11c0,.82.06,1.62.11,2.41l-4.66,0H2.88A2.55,2.55,0,0,1,.34,21.93V2.83A2.54,2.54,0,0,1,2.88.29H16.07a2.54,2.54,0,0,1,2.54,2.54v15C18.57,19.19,18.56,20.62,18.61,22.11Z" transform="translate(0.05 0.1)"/><path class="d" d="M21.35,6.79h1.48a2.36,2.36,0,0,1,2.36,2.36V24.48a0,0,0,0,1,0,0h-5a1.59,1.59,0,0,1-1.59-1.59V9.53A2.74,2.74,0,0,1,21.35,6.79Z" transform="translate(43.85 31.37) rotate(-180)"/><rect class="e" x="18.61" y="6.79" width="4.15" height="11.03" transform="translate(41.43 24.72) rotate(-180)"/><rect class="f" x="2.22" y="5.07" width="7.15" height="7.15" rx="1.14" transform="translate(11.65 17.4) rotate(-180)"/><rect class="g" x="10.43" y="5.52" width="6.05" height="1.25" rx="0.61" transform="translate(26.96 12.39) rotate(-180)"/><rect class="f" x="10.43" y="8.02" width="6.05" height="1.25" rx="0.61" transform="translate(26.96 17.38) rotate(-180)"/><rect class="f" x="10.43" y="10.51" width="6.05" height="1.25" rx="0.61" transform="translate(26.96 22.37) rotate(-180)"/><rect class="f" x="2.22" y="13.83" width="14.3" height="1.25" rx="0.61" transform="translate(18.8 29) rotate(-180)"/><rect class="f" x="2.22" y="16.17" width="14.3" height="1.25" rx="0.61" transform="translate(18.8 33.69) rotate(-180)"/></svg>