<svg xmlns="http://www.w3.org/2000/svg" viewBox="0 0 25.72 25.2"><defs><style>.a{fill:#c7dee0;}.b{fill:#fff;}.c,.d{fill:none;}.c,.d,.e{stroke:#231f20;stroke-miterlimit:10;}.c{stroke-width:0.78px;}.d{stroke-width:0.76px;}.e,.f{fill:#bcbec0;}.e{stroke-width:0.72px;}.g{fill:#9d1e2d;}</style></defs><title>NewsBanner_left</title><rect class="a" width="25.68" height="25"/><path class="b" d="M22.66.82H9.47A2.54,2.54,0,0,0,6.93,3.36v4H2A1.6,1.6,0,0,0,.35,8.91V22.26A2.74,2.74,0,0,0,3.09,25H4.57a2.36,2.36,0,0,0,2.36-2.36V25H22.66a2.54,2.54,0,0,0,2.54-2.54V3.36A2.54,2.54,0,0,0,22.66.82Z"/><path class="c" d="M7.06,22.41q0,1.23-.12,2.4l4.67,0H22.79a2.54,2.54,0,0,0,2.54-2.54V3.13A2.55,2.55,0,0,0,22.79.58H9.6A2.55,2.55,0,0,0,7.06,3.13v15Q7.12,20.16,7.06,22.41Z"/><path class="d" d="M2.07,7.09h5a0,0,0,0,1,0,0V22.41a2.36,2.36,0,0,1-2.36,2.36H3.22A2.74,2.74,0,0,1,.48,22V8.68A1.59,1.59,0,0,1,2.07,7.09Z"/><rect class="e" x="2.9" y="7.09" width="4.15" height="11.03"/><rect class="f" x="16.29" y="5.37" width="7.15" height="7.15" rx="1.14"/><rect class="g" x="9.19" y="5.81" width="6.05" height="1.25" rx="0.61"/><rect class="f" x="9.19" y="8.31" width="6.05" height="1.25" rx="0.61"/><rect class="f" x="9.19" y="10.81" width="6.05" height="1.25" rx="0.61"/><rect class="f" x="9.14" y="14.12" width="14.3" height="1.25" rx="0.61"/><rect class="f" x="9.14" y="16.46" width="14.3" height="1.25" rx="0.61"/></svg>