<svg xmlns="http://www.w3.org/2000/svg" viewBox="0 0 18.39 25"><defs><style>.a{fill:#c7dee0;}.b{fill:#231f20;}.c{fill:#fff;}.d{fill:#9d1e2d;}.e{fill:#bcbec0;}</style></defs><title>ReportBanner_right</title><rect class="a" width="18.39" height="25" transform="translate(18.39 25) rotate(-180)"/><rect class="b" y="1.13" width="17.01" height="23.87" transform="translate(17.01 26.13) rotate(-180)"/><polygon class="c" points="1.38 23.87 13.89 23.87 18.39 19.37 18.39 0 1.38 0 1.38 23.87"/><path class="d" d="M18.39,19.37l-4.68,0,.18,4.53Z" transform="translate(0 0)"/><rect class="e" x="3.54" y="3.37" width="12.69" height="2.45" transform="translate(19.77 9.18) rotate(-180)"/><rect class="e" x="3.54" y="8.85" width="12.51" height="0.84" transform="translate(19.59 18.54) rotate(-180)"/><rect class="e" x="3.54" y="10.73" width="12.51" height="0.84" transform="translate(19.59 22.31) rotate(-180)"/><rect class="e" x="3.54" y="12.64" width="12.51" height="0.84" transform="translate(19.59 26.13) rotate(-180)"/><rect class="e" x="3.54" y="14.59" width="12.51" height="0.84" transform="translate(19.59 30.03) rotate(-180)"/></svg>