<svg xmlns="http://www.w3.org/2000/svg" xmlns:xlink="http://www.w3.org/1999/xlink" viewBox="0 0 247.19 243.59"><defs><style>.a{fill:#fff;}.b{fill:none;}.c{fill:url(#a);}.d{fill:#0c4560;}.e{fill:url(#b);}.f{fill:#9d1e2d;}</style><linearGradient id="a" x1="152.27" y1="127.31" x2="152.27" y2="-24.3" gradientUnits="userSpaceOnUse"><stop offset="0" stop-color="#0ba7b5"/><stop offset="1" stop-color="#abdff1"/></linearGradient><linearGradient id="b" x1="205.37" y1="185.55" x2="205.37" y2="51.63" xlink:href="#a"/></defs><title>VarnoDomovLogo</title><path class="a" d="M37.21,156.71c.23,1.41.57,2.51,2.81,8.7,1.55,4.29,2.86,7.86,3.8,10.37l83.62-29.38,112-25.8,23.81-29.21-35.81-16.2-29.41-8.41-135.43,57L40,142.4C36.69,149,36.75,153.81,37.21,156.71Z" transform="translate(-32.91 -5.1)"/><path class="a" d="M186.4,245.7a206.09,206.09,0,0,1-43.78,2.8,80.7,80.7,0,0,1-20.32-11c-6.57-4.89-13.84-10.3-18.6-20.4a45.26,45.26,0,0,1-4.2-21.61,43.54,43.54,0,0,1,5.6-19.4c6.78-11.36,18.47-15.7,30-19.81,38.89-13.85,58.34-20.78,58.74-20.9h0c36.21-10.86,52.14-17.74,56.42-20.2,17.09-9.84,17.43-15.25,17.33-17-.21-4-3.7-7.12-5.86-9.07-5.13-4.61-10.26-5.77-17.34-7.73-12.8-3.55,1-.56-36-11.47l-11.54-3.37a12,12,0,0,1,3.6-7.4c3.54-3.23,9.11-3.84,14.07-1.5,6.41-.11,21.38.18,35.35,5.9a49.52,49.52,0,0,1,14.8,9,37.35,37.35,0,0,1,6.95,8.25c1,1.56,2.76,4.76,4.65,11.75a91.2,91.2,0,0,1,3,19.19c-3.93,12.74-12,32.19-29.84,47-29,24.12-61.42,17.4-72,38.21C173.47,204.83,171.29,219,186.4,245.7Z" transform="translate(-32.91 -5.1)"/><path class="b" d="M202.14,72.82c-.3.54-.61,1.09-.94,1.65l-.61-.2c-7.91-2.63-14.46-4.76-18.86-6.2l-2-.64,2.5.54C187.2,69.06,194.3,70.7,202.14,72.82Z" transform="translate(-32.91 -5.1)"/><path class="b" d="M205.73,66.13c-5-.49-10.26-.91-15.79-1.24-3.26-.19-6.61-.36-10-.49,3.15-.25,7.07-.48,11.6-.58,1.29,0,2.62,0,4,0s5.27,0,11.22.34" transform="translate(-32.91 -5.1)"/><path class="c" d="M201.2,74.47c18.06,6.11,54,17.21,27.29,33.09-14.05,8.33-39.9,9.77-55.75,12.53-45,7.84-99.31,4.31-135.53,36.62C-.14,11.27,216.8-58.86,271.62,80.84,253.06,67.2,229,65.41,206.71,64.11Z" transform="translate(-32.91 -5.1)"/><path class="d" d="M275.16,99.2c-.78,34.81-90.33,44.46-114.11,52.58-54,18.42-70.06,61-18.43,96.72a123.48,123.48,0,0,1-98.8-72.72c32.16-37.29,87.5-36.71,132.06-47.2,17.68-4.16,56.59-8.18,68.41-24,14.63-19.53-26.33-28.5-41.49-33,.79-1.51,1.64-3,2.53-4.44C221.83,68.27,275.74,72.88,275.16,99.2Z" transform="translate(-32.91 -5.1)"/><path class="e" d="M280.11,125.9A123.44,123.44,0,0,1,186.4,245.7c-40.13-15.15-86.41-48.64-28.52-77.16C195.5,150,253.09,147.9,279.31,111.78A124.37,124.37,0,0,1,280.11,125.9Z" transform="translate(-32.91 -5.1)"/><path class="f" d="M208,26.48c-8.24-14-25.07-15.61-26.67-15.73-2.6-.21-16.22-1-26.66,9.18-9.34,9.1-9.94,20.88-10.06,24.48-.32,9.2,2.82,15.43,14,35.41,7.85,14,14.6,25.79,19.68,34.54,4.25-7.08,10.45-17.47,17.92-30.17,2.16-3.68,4-6.87,5.64-9.7l.93-1.65c1.41-2.49,2.59-4.68,3.6-6.69.35-.69.67-1.36,1-2a42,42,0,0,0,4.15-14C212.18,44.33,213.21,35.33,208,26.48Z" transform="translate(-32.91 -5.1)"/><path class="a" d="M187.05,61.82c-.21.11-.42.22-.63.31l-.17.08-.38.17-.39.16c-.18.07-.37.15-.56.21l-.35.13c-.24.08-.48.16-.74.23s-.55.16-.84.24l-.39.09-.46.1-.41.08h0c-.27,0-.54.09-.81.12h0l-.41,0-.31,0c-.26,0-.51.05-.78.06s-.68,0-1,0a19.15,19.15,0,1,1,19.14-19.15c0,.2,0,.39,0,.59v.1c0,.1,0,.2,0,.3s0,.42,0,.63l0,.31A18.84,18.84,0,0,1,197,49c0,.12-.05.25-.08.37-.09.37-.19.73-.3,1.09,0,.17-.11.34-.16.5s-.1.3-.16.44a3.34,3.34,0,0,1-.17.44l0,.09c-.07.19-.15.38-.23.56l-.27.58,0,0a3.78,3.78,0,0,1-.17.35c-.08.16-.16.32-.25.48a4.1,4.1,0,0,1-.23.4c-.09.17-.19.34-.29.5A19.12,19.12,0,0,1,193.11,57c-.09.12-.19.23-.3.35a3.17,3.17,0,0,1-.3.34c-.2.22-.41.45-.63.66s-.44.44-.68.65l-.34.3-.35.29a3.11,3.11,0,0,1-.28.23l-.43.34h0a7.17,7.17,0,0,1-.63.45,1.77,1.77,0,0,1-.17.12l-.26.17-.23.14A14.72,14.72,0,0,1,187.05,61.82Z" transform="translate(-32.91 -5.1)"/><path class="a" d="M274.47,211.42" transform="translate(-32.91 -5.1)"/></svg>